<svg id="Layer_1" data-name="Layer 1" xmlns="http://www.w3.org/2000/svg" viewBox="0 0 99.42 99.42"><defs><style>.cls-1{fill:#1d1d1b;stroke-width:0.75px;}.cls-1,.cls-2,.cls-3{stroke:#666;stroke-miterlimit:10;}.cls-2,.cls-3{fill:none;stroke-width:2px;}.cls-3{stroke-dasharray:4.03 4.03;}.cls-4{fill:#676767;}</style></defs><title>KONVELS_NORNIKEL_upravlenie</title><circle class="cls-1" cx="49.71" cy="49.71" r="49.33"/><line class="cls-2" x1="25.51" y1="28.78" x2="25.51" y2="30.78"/><path class="cls-3" d="M25.51,34.81V66.66s.25,8.42,12.61,8.42c8.41,0,10.41-5.64,10.41-16.76V40.88S47,27.23,59.88,27.23c10.72,0,13.4,9.07,13.4,18.17V69.73"/><path class="cls-2" d="M73.28,71.74v2"/><polygon class="cls-4" points="25.32 28.77 33.12 28.77 29.22 34.17 25.32 39.58 21.42 34.17 17.52 28.77 25.32 28.77"/><polygon class="cls-4" points="25.32 55.02 33.12 55.02 29.22 60.42 25.32 65.82 21.42 60.42 17.52 55.02 25.32 55.02"/><polygon class="cls-4" points="73.24 40.35 81.04 40.35 77.14 45.75 73.24 51.16 69.34 45.75 65.44 40.35 73.24 40.35"/><polygon class="cls-4" points="73.24 65.05 81.04 65.05 77.14 70.45 73.24 75.86 69.34 70.45 65.44 65.05 73.24 65.05"/></svg>